<svg xmlns="http://www.w3.org/2000/svg" xmlns:xlink="http://www.w3.org/1999/xlink" width="500" zoomAndPan="magnify" viewBox="0 0 375 374.999991" height="500" preserveAspectRatio="xMidYMid meet" version="1.0"><defs><clipPath id="74a22d4883"><path d="M 324 129 L 338 129 L 338 135.472656 L 324 135.472656 Z M 324 129 " clip-rule="nonzero"/></clipPath><clipPath id="2668e35aa3"><path d="M 316.664062 87.472656 L 344.414062 87.472656 L 344.414062 132 L 316.664062 132 Z M 316.664062 87.472656 " clip-rule="nonzero"/></clipPath><clipPath id="b42280dde2"><path d="M 93 123 L 107 123 L 107 128.910156 L 93 128.910156 Z M 93 123 " clip-rule="nonzero"/></clipPath><clipPath id="a8937fea6e"><path d="M 93 122 L 107 122 L 107 128.910156 L 93 128.910156 Z M 93 122 " clip-rule="nonzero"/></clipPath><clipPath id="96695d7f83"><path d="M 85.058594 78.660156 L 115 78.660156 L 115 126 L 85.058594 126 Z M 85.058594 78.660156 " clip-rule="nonzero"/></clipPath><clipPath id="8e396c156e"><path d="M 243 296 L 257 296 L 257 302.285156 L 243 302.285156 Z M 243 296 " clip-rule="nonzero"/></clipPath><clipPath id="dd27c567f4"><path d="M 234.976562 252.035156 L 264.976562 252.035156 L 264.976562 300 L 234.976562 300 Z M 234.976562 252.035156 " clip-rule="nonzero"/></clipPath><clipPath id="44f9b87dfb"><path d="M 93 278 L 107 278 L 107 284.558594 L 93 284.558594 Z M 93 278 " clip-rule="nonzero"/></clipPath><clipPath id="a0c8af0cb6"><path d="M 85.898438 236.558594 L 113.648438 236.558594 L 113.648438 281 L 85.898438 281 Z M 85.898438 236.558594 " clip-rule="nonzero"/></clipPath></defs><path fill="#000000" d="M 337.3125 111.671875 L 333.332031 109.578125 L 333.679688 108.914062 L 337.664062 111.007812 M 332.667969 109.226562 L 328.6875 107.132812 L 329.035156 106.46875 L 333.015625 108.566406 M 328.023438 106.785156 L 324.039062 104.6875 L 324.390625 104.023438 L 328.371094 106.121094 M 323.375 104.339844 L 319.394531 102.242188 L 319.742188 101.578125 L 323.726562 103.675781 M 318.730469 101.894531 L 314.746094 99.796875 L 315.097656 99.136719 L 319.078125 101.230469 M 314.085938 99.449219 L 310.101562 97.355469 L 310.449219 96.691406 L 314.433594 98.785156 M 309.4375 97.003906 L 305.457031 94.910156 L 305.804688 94.246094 L 309.789062 96.339844 M 304.792969 94.558594 L 300.808594 92.464844 L 301.160156 91.800781 L 305.140625 93.894531 M 300.144531 92.117188 L 296.164062 90.019531 L 296.511719 89.355469 L 300.496094 91.453125 M 295.5 89.671875 L 291.515625 87.574219 L 291.867188 86.910156 L 295.847656 89.007812 M 290.855469 87.226562 L 286.871094 85.128906 L 287.222656 84.464844 L 291.203125 86.5625 M 286.207031 84.78125 L 282.226562 82.6875 L 282.574219 82.023438 L 286.558594 84.117188 M 281.5625 82.335938 L 277.578125 80.242188 L 277.929688 79.578125 L 281.910156 81.671875 M 276.914062 79.890625 L 272.933594 77.796875 L 273.28125 77.132812 L 277.265625 79.226562 M 272.269531 77.445312 L 268.289062 75.351562 L 268.636719 74.6875 L 272.617188 76.785156 M 267.625 75.003906 L 263.640625 72.90625 L 263.992188 72.242188 L 267.972656 74.339844 M 262.976562 72.558594 L 258.996094 70.460938 L 259.34375 69.796875 L 263.328125 71.894531 M 258.332031 70.113281 L 254.347656 68.015625 L 254.699219 67.355469 L 258.679688 69.449219 M 253.683594 67.667969 L 249.703125 65.574219 L 250.050781 64.910156 L 254.035156 67.003906 M 249.039062 65.222656 L 245.058594 63.128906 L 245.40625 62.464844 L 249.386719 64.558594 M 244.394531 62.777344 L 240.410156 60.683594 L 240.761719 60.019531 L 244.742188 62.113281 M 239.746094 60.332031 L 235.765625 58.238281 L 236.113281 57.574219 L 240.097656 59.671875 M 235.101562 57.890625 L 231.117188 55.792969 L 231.46875 55.128906 L 235.449219 57.226562 M 230.457031 55.445312 L 226.472656 53.347656 L 226.820312 52.683594 L 230.804688 54.78125 M 225.808594 53 L 221.828125 50.90625 L 222.175781 50.242188 L 226.160156 52.335938 M 221.164062 50.554688 L 221.019531 50.480469 L 221.367188 49.816406 L 221.511719 49.890625 " fill-opacity="1" fill-rule="nonzero"/><g clip-path="url(#74a22d4883)"><path fill="#2b6451" d="M 337.023438 132.476562 C 337.023438 133.953125 334.21875 135.152344 330.753906 135.152344 C 327.292969 135.152344 324.488281 133.953125 324.488281 132.476562 C 324.488281 131 327.292969 129.796875 330.753906 129.796875 C 334.21875 129.796875 337.023438 131 337.023438 132.476562 " fill-opacity="1" fill-rule="nonzero"/></g><path fill="#fcd24f" d="M 336.894531 131.828125 C 336.894531 133.308594 334.117188 134.503906 330.691406 134.503906 C 327.265625 134.503906 324.488281 133.308594 324.488281 131.828125 C 324.488281 130.347656 327.265625 129.152344 330.691406 129.152344 C 334.117188 129.152344 336.894531 130.347656 336.894531 131.828125 " fill-opacity="1" fill-rule="nonzero"/><g clip-path="url(#2668e35aa3)"><path fill="#164366" d="M 330.929688 87.53125 C 330.847656 87.53125 330.765625 87.535156 330.683594 87.539062 C 330.601562 87.535156 330.519531 87.53125 330.4375 87.53125 C 322.828125 87.53125 316.65625 93.964844 316.65625 101.898438 C 316.65625 103.253906 317.183594 106.382812 317.96875 107.683594 L 330.683594 131.828125 L 343.398438 107.683594 C 344.1875 106.382812 344.710938 103.253906 344.710938 101.898438 C 344.710938 93.964844 338.542969 87.53125 330.929688 87.53125 " fill-opacity="1" fill-rule="nonzero"/></g><path fill="#ffffff" d="M 338.296875 100.296875 C 338.296875 104.503906 334.886719 107.910156 330.683594 107.910156 C 326.480469 107.910156 323.074219 104.503906 323.074219 100.296875 C 323.074219 96.09375 326.480469 92.6875 330.683594 92.6875 C 334.886719 92.6875 338.296875 96.09375 338.296875 100.296875 " fill-opacity="1" fill-rule="nonzero"/><path fill="#000000" d="M 37.507812 141.632812 L 41.53125 139.617188 L 41.867188 140.289062 L 37.839844 142.304688 M 42.203125 139.28125 L 46.226562 137.269531 L 46.5625 137.941406 L 42.535156 139.953125 M 46.894531 136.933594 L 50.921875 134.921875 L 51.257812 135.589844 L 47.230469 137.605469 M 51.589844 134.585938 L 55.617188 132.570312 L 55.953125 133.242188 L 51.925781 135.253906 M 56.285156 132.234375 L 60.3125 130.222656 L 60.648438 130.894531 L 56.621094 132.90625 M 60.980469 129.886719 L 65.007812 127.875 L 65.34375 128.542969 L 61.316406 130.558594 M 65.675781 127.539062 L 69.703125 125.523438 L 70.039062 126.195312 L 66.011719 128.207031 M 70.371094 125.1875 L 74.398438 123.175781 L 74.730469 123.847656 L 70.707031 125.859375 M 75.066406 122.839844 L 79.09375 120.828125 L 79.425781 121.496094 L 75.402344 123.511719 M 79.761719 120.492188 L 83.789062 118.476562 L 84.121094 119.148438 L 80.097656 121.160156 M 84.457031 118.140625 L 88.480469 116.128906 L 88.816406 116.800781 L 84.792969 118.8125 M 89.152344 115.792969 L 93.175781 113.78125 L 93.511719 114.449219 L 89.488281 116.464844 M 93.847656 113.445312 L 97.871094 111.429688 L 98.207031 112.101562 L 94.183594 114.113281 M 98.542969 111.09375 L 102.566406 109.082031 L 102.902344 109.753906 L 98.878906 111.765625 M 103.238281 108.746094 L 107.261719 106.734375 L 107.597656 107.402344 L 103.574219 109.417969 M 107.933594 106.398438 L 111.957031 104.382812 L 112.292969 105.054688 L 108.269531 107.066406 M 112.628906 104.046875 L 116.652344 102.035156 L 116.988281 102.707031 L 112.964844 104.71875 M 117.324219 101.699219 L 121.347656 99.683594 L 121.683594 100.355469 L 117.660156 102.371094 M 122.019531 99.351562 L 126.042969 97.335938 L 126.378906 98.007812 L 122.355469 100.019531 M 126.714844 97 L 130.738281 94.988281 L 131.074219 95.660156 L 127.050781 97.671875 M 131.410156 94.652344 L 135.433594 92.636719 L 135.769531 93.308594 L 131.746094 95.324219 M 136.105469 92.304688 L 140.128906 90.289062 L 140.464844 90.960938 L 136.441406 92.972656 M 140.800781 89.953125 L 144.824219 87.941406 L 145.160156 88.609375 L 141.136719 90.625 M 145.496094 87.605469 L 149.519531 85.589844 L 149.855469 86.261719 L 145.832031 88.277344 M 150.191406 85.257812 L 154.214844 83.242188 L 154.550781 83.914062 L 150.527344 85.925781 M 154.886719 82.90625 L 158.910156 80.894531 L 159.246094 81.5625 L 155.222656 83.578125 M 159.582031 80.558594 L 163.605469 78.542969 L 163.941406 79.214844 L 159.917969 81.230469 M 164.277344 78.207031 L 168.300781 76.195312 L 168.636719 76.867188 L 164.613281 78.878906 M 168.972656 75.859375 L 172.996094 73.847656 L 173.332031 74.515625 L 169.304688 76.53125 M 173.667969 73.511719 L 177.691406 71.496094 L 178.027344 72.167969 L 174 74.179688 M 178.363281 71.160156 L 182.386719 69.148438 L 182.722656 69.820312 L 178.695312 71.832031 M 183.054688 68.8125 L 187.082031 66.800781 L 187.417969 67.46875 L 183.390625 69.484375 M 187.75 66.464844 L 191.777344 64.449219 L 192.113281 65.121094 L 188.085938 67.132812 M 192.445312 64.113281 L 196.472656 62.101562 L 196.808594 62.773438 L 192.78125 64.785156 M 197.140625 61.765625 L 201.167969 59.753906 L 201.503906 60.421875 L 197.476562 62.4375 M 201.835938 59.417969 L 205.863281 57.402344 L 206.195312 58.074219 L 202.171875 60.085938 M 206.53125 57.066406 L 210.558594 55.054688 L 210.890625 55.726562 L 206.867188 57.738281 M 211.226562 54.71875 L 215.253906 52.707031 L 215.585938 53.375 L 211.5625 55.390625 M 215.921875 52.371094 L 219.945312 50.355469 L 220.28125 51.027344 L 216.257812 53.039062 M 220.617188 50.019531 L 221.035156 49.8125 L 221.371094 50.484375 L 220.953125 50.691406 " fill-opacity="1" fill-rule="nonzero"/><g clip-path="url(#b42280dde2)"><path fill="#2b6451" d="M 106.636719 126.351562 C 106.636719 127.917969 103.664062 129.1875 99.996094 129.1875 C 96.324219 129.1875 93.351562 127.917969 93.351562 126.351562 C 93.351562 124.785156 96.324219 123.511719 99.996094 123.511719 C 103.664062 123.511719 106.636719 124.785156 106.636719 126.351562 " fill-opacity="1" fill-rule="nonzero"/></g><g clip-path="url(#a8937fea6e)"><path fill="#fcd24f" d="M 106.503906 125.664062 C 106.503906 127.230469 103.558594 128.5 99.925781 128.5 C 96.296875 128.5 93.351562 127.230469 93.351562 125.664062 C 93.351562 124.09375 96.296875 122.824219 99.925781 122.824219 C 103.558594 122.824219 106.503906 124.09375 106.503906 125.664062 " fill-opacity="1" fill-rule="nonzero"/></g><g clip-path="url(#96695d7f83)"><path fill="#2b6451" d="M 100.179688 78.71875 C 100.09375 78.71875 100.007812 78.726562 99.921875 78.726562 C 99.832031 78.726562 99.746094 78.71875 99.660156 78.71875 C 91.59375 78.71875 85.054688 85.539062 85.054688 93.945312 C 85.054688 95.382812 85.609375 98.699219 86.445312 100.074219 L 99.921875 125.664062 L 113.394531 100.074219 C 114.230469 98.699219 114.785156 95.382812 114.785156 93.945312 C 114.785156 85.539062 108.246094 78.71875 100.179688 78.71875 " fill-opacity="1" fill-rule="nonzero"/></g><path fill="#ffffff" d="M 107.984375 92.25 C 107.984375 96.703125 104.375 100.316406 99.921875 100.316406 C 95.464844 100.316406 91.851562 96.703125 91.851562 92.25 C 91.851562 87.792969 95.464844 84.183594 99.921875 84.183594 C 104.375 84.183594 107.984375 87.792969 107.984375 92.25 " fill-opacity="1" fill-rule="nonzero"/><path fill="#000000" d="M 179.117188 307.257812 L 183.144531 305.242188 L 183.480469 305.914062 L 179.453125 307.925781 M 183.8125 304.90625 L 187.839844 302.894531 L 188.175781 303.5625 L 184.148438 305.578125 M 188.507812 302.558594 L 192.535156 300.542969 L 192.871094 301.214844 L 188.84375 303.230469 M 193.203125 300.210938 L 197.230469 298.195312 L 197.5625 298.867188 L 193.539062 300.878906 M 197.898438 297.859375 L 201.925781 295.847656 L 202.257812 296.515625 L 198.234375 298.53125 M 202.59375 295.511719 L 206.621094 293.496094 L 206.953125 294.167969 L 202.929688 296.183594 M 207.289062 293.160156 L 211.3125 291.148438 L 211.648438 291.820312 L 207.625 293.832031 M 211.984375 290.8125 L 216.007812 288.800781 L 216.34375 289.46875 L 212.320312 291.484375 M 216.679688 288.464844 L 220.703125 286.449219 L 221.039062 287.121094 L 217.015625 289.136719 M 221.375 286.113281 L 225.398438 284.101562 L 225.734375 284.773438 L 221.710938 286.785156 M 226.070312 283.765625 L 230.09375 281.753906 L 230.429688 282.421875 L 226.40625 284.4375 M 230.765625 281.417969 L 234.789062 279.402344 L 235.125 280.074219 L 231.101562 282.085938 M 235.460938 279.066406 L 239.484375 277.054688 L 239.820312 277.726562 L 235.796875 279.738281 M 240.15625 276.71875 L 244.179688 274.707031 L 244.515625 275.375 L 240.492188 277.390625 M 244.851562 274.371094 L 248.875 272.355469 L 249.210938 273.027344 L 245.1875 275.039062 M 249.546875 272.019531 L 253.570312 270.007812 L 253.90625 270.679688 L 249.882812 272.691406 M 254.242188 269.671875 L 258.265625 267.660156 L 258.601562 268.328125 L 254.578125 270.34375 M 258.9375 267.324219 L 262.960938 265.308594 L 263.296875 265.980469 L 259.273438 267.992188 M 263.632812 264.972656 L 267.65625 262.960938 L 267.992188 263.632812 L 263.96875 265.644531 M 268.328125 262.625 L 272.351562 260.613281 L 272.6875 261.28125 L 268.664062 263.296875 M 273.023438 260.277344 L 277.046875 258.261719 L 277.382812 258.933594 L 273.359375 260.945312 M 277.71875 257.925781 L 281.742188 255.914062 L 282.078125 256.585938 L 278.054688 258.597656 M 282.414062 255.578125 L 286.4375 253.566406 L 286.773438 254.234375 L 282.75 256.25 M 287.109375 253.230469 L 291.132812 251.214844 L 291.46875 251.886719 L 287.445312 253.898438 M 291.804688 250.878906 L 295.828125 248.867188 L 296.164062 249.539062 L 292.140625 251.550781 M 296.5 248.53125 L 300.523438 246.515625 L 300.859375 247.1875 L 296.832031 249.203125 M 301.195312 246.183594 L 305.21875 244.167969 L 305.554688 244.839844 L 301.527344 246.851562 M 305.886719 243.832031 L 309.914062 241.820312 L 310.25 242.492188 L 306.222656 244.503906 M 310.582031 241.484375 L 314.609375 239.46875 L 314.945312 240.140625 L 310.917969 242.15625 M 315.277344 239.136719 L 319.304688 237.121094 L 319.640625 237.792969 L 315.613281 239.804688 M 319.972656 236.785156 L 324 234.773438 L 324.335938 235.441406 L 320.308594 237.457031 M 324.667969 234.4375 L 328.695312 232.421875 L 329.03125 233.09375 L 325.003906 235.109375 M 329.363281 232.089844 L 333.390625 230.074219 L 333.722656 230.746094 L 329.699219 232.757812 M 334.058594 229.738281 L 338.085938 227.726562 L 338.417969 228.394531 L 334.394531 230.410156 M 338.753906 227.390625 L 342.777344 225.375 L 343.113281 226.046875 L 339.089844 228.0625 M 343.449219 225.039062 L 347.472656 223.027344 L 347.808594 223.699219 L 343.785156 225.710938 M 348.144531 222.691406 L 352.167969 220.679688 L 352.503906 221.347656 L 348.480469 223.363281 M 352.839844 220.34375 L 356.863281 218.328125 L 357.199219 219 L 353.175781 221.011719 M 357.535156 217.992188 L 361.558594 215.980469 L 361.894531 216.652344 L 357.871094 218.664062 M 362.230469 215.644531 L 362.648438 215.4375 L 362.984375 216.105469 L 362.566406 216.316406 " fill-opacity="1" fill-rule="nonzero"/><g clip-path="url(#8e396c156e)"><path fill="#2b6451" d="M 256.554688 299.726562 C 256.554688 301.292969 253.578125 302.5625 249.910156 302.5625 C 246.242188 302.5625 243.265625 301.292969 243.265625 299.726562 C 243.265625 298.160156 246.242188 296.890625 249.910156 296.890625 C 253.578125 296.890625 256.554688 298.160156 256.554688 299.726562 " fill-opacity="1" fill-rule="nonzero"/></g><path fill="#fcd24f" d="M 256.417969 299.039062 C 256.417969 300.605469 253.472656 301.878906 249.84375 301.878906 C 246.210938 301.878906 243.265625 300.605469 243.265625 299.039062 C 243.265625 297.472656 246.210938 296.203125 249.84375 296.203125 C 253.472656 296.203125 256.417969 297.472656 256.417969 299.039062 " fill-opacity="1" fill-rule="nonzero"/><g clip-path="url(#dd27c567f4)"><path fill="#2b6451" d="M 250.09375 252.097656 C 250.007812 252.097656 249.921875 252.101562 249.835938 252.105469 C 249.746094 252.101562 249.660156 252.097656 249.574219 252.097656 C 241.507812 252.097656 234.96875 258.914062 234.96875 267.324219 C 234.96875 268.757812 235.523438 272.074219 236.359375 273.453125 L 249.835938 299.039062 L 263.308594 273.453125 C 264.144531 272.074219 264.699219 268.757812 264.699219 267.324219 C 264.699219 258.914062 258.164062 252.097656 250.09375 252.097656 " fill-opacity="1" fill-rule="nonzero"/></g><path fill="#ffffff" d="M 257.902344 265.625 C 257.902344 270.082031 254.289062 273.691406 249.835938 273.691406 C 245.378906 273.691406 241.769531 270.082031 241.769531 265.625 C 241.769531 261.171875 245.378906 257.558594 249.835938 257.558594 C 254.289062 257.558594 257.902344 261.171875 257.902344 265.625 " fill-opacity="1" fill-rule="nonzero"/><path fill="#000000" d="M 178.933594 308.257812 L 174.953125 306.164062 L 175.300781 305.5 L 179.28125 307.59375 M 174.289062 305.8125 L 170.304688 303.71875 L 170.65625 303.054688 L 174.636719 305.148438 M 169.640625 303.367188 L 165.660156 301.273438 L 166.007812 300.609375 L 169.992188 302.703125 M 164.996094 300.925781 L 161.011719 298.828125 L 161.363281 298.164062 L 165.34375 300.261719 M 160.347656 298.480469 L 156.367188 296.382812 L 156.714844 295.71875 L 160.699219 297.816406 M 155.703125 296.035156 L 151.722656 293.9375 L 152.070312 293.273438 L 156.054688 295.371094 M 151.058594 293.589844 L 147.074219 291.496094 L 147.425781 290.832031 L 151.40625 292.925781 M 146.410156 291.144531 L 142.429688 289.050781 L 142.777344 288.386719 L 146.761719 290.480469 M 141.765625 288.699219 L 137.78125 286.605469 L 138.132812 285.941406 L 142.113281 288.035156 M 137.121094 286.253906 L 133.136719 284.160156 L 133.484375 283.496094 L 137.46875 285.59375 M 132.472656 283.8125 L 128.492188 281.714844 L 128.839844 281.050781 L 132.824219 283.148438 M 127.828125 281.367188 L 123.84375 279.269531 L 124.195312 278.605469 L 128.175781 280.703125 M 123.179688 278.921875 L 119.199219 276.824219 L 119.546875 276.164062 L 123.53125 278.257812 M 118.535156 276.476562 L 114.554688 274.382812 L 114.902344 273.71875 L 118.882812 275.8125 M 113.890625 274.03125 L 109.90625 271.9375 L 110.257812 271.273438 L 114.238281 273.367188 M 109.242188 271.585938 L 105.261719 269.492188 L 105.609375 268.828125 L 109.59375 270.921875 M 104.597656 269.140625 L 100.613281 267.046875 L 100.964844 266.382812 L 104.945312 268.480469 M 99.949219 266.699219 L 95.96875 264.601562 L 96.316406 263.9375 L 100.300781 266.035156 M 95.304688 264.253906 L 91.324219 262.15625 L 91.671875 261.492188 L 95.652344 263.589844 M 90.660156 261.808594 L 86.675781 259.714844 L 87.027344 259.050781 L 91.007812 261.144531 M 86.011719 259.363281 L 82.03125 257.269531 L 82.378906 256.605469 L 86.363281 258.699219 M 81.367188 256.917969 L 77.382812 254.824219 L 77.734375 254.160156 L 81.714844 256.253906 M 76.71875 254.472656 L 72.738281 252.378906 L 73.085938 251.714844 L 77.070312 253.808594 M 72.074219 252.03125 L 68.09375 249.933594 L 68.441406 249.269531 L 72.421875 251.367188 M 67.429688 249.585938 L 63.445312 247.488281 L 63.796875 246.824219 L 67.777344 248.921875 M 62.78125 247.140625 L 62.636719 247.0625 L 62.988281 246.398438 L 63.132812 246.476562 " fill-opacity="1" fill-rule="nonzero"/><g clip-path="url(#44f9b87dfb)"><path fill="#2b6451" d="M 106.257812 281.5625 C 106.257812 283.039062 103.453125 284.238281 99.988281 284.238281 C 96.527344 284.238281 93.722656 283.039062 93.722656 281.5625 C 93.722656 280.082031 96.527344 278.882812 99.988281 278.882812 C 103.453125 278.882812 106.257812 280.082031 106.257812 281.5625 " fill-opacity="1" fill-rule="nonzero"/></g><path fill="#fcd24f" d="M 106.128906 280.914062 C 106.128906 282.390625 103.351562 283.589844 99.925781 283.589844 C 96.5 283.589844 93.722656 282.390625 93.722656 280.914062 C 93.722656 279.433594 96.5 278.234375 99.925781 278.234375 C 103.351562 278.234375 106.128906 279.433594 106.128906 280.914062 " fill-opacity="1" fill-rule="nonzero"/><g clip-path="url(#a0c8af0cb6)"><path fill="#164366" d="M 100.164062 236.617188 C 100.082031 236.617188 100 236.621094 99.917969 236.625 C 99.835938 236.621094 99.753906 236.617188 99.671875 236.617188 C 92.0625 236.617188 85.890625 243.050781 85.890625 250.984375 C 85.890625 252.339844 86.414062 255.46875 87.203125 256.769531 L 99.917969 280.914062 L 112.632812 256.769531 C 113.421875 255.46875 113.945312 252.339844 113.945312 250.984375 C 113.945312 243.050781 107.777344 236.617188 100.164062 236.617188 " fill-opacity="1" fill-rule="nonzero"/></g><path fill="#ffffff" d="M 107.53125 249.382812 C 107.53125 253.585938 104.121094 256.996094 99.917969 256.996094 C 95.714844 256.996094 92.308594 253.585938 92.308594 249.382812 C 92.308594 245.179688 95.714844 241.773438 99.917969 241.773438 C 104.121094 241.773438 107.53125 245.179688 107.53125 249.382812 " fill-opacity="1" fill-rule="nonzero"/></svg>